<svg width="600" height="502" viewBox="0 0 600 502" fill="none" xmlns="http://www.w3.org/2000/svg">
<g clip-path="url(#clip0)">
<path d="M281.822 501.648C412.69 501.648 518.78 496.223 518.78 489.531C518.78 482.839 412.69 477.414 281.822 477.414C150.953 477.414 44.8629 482.839 44.8629 489.531C44.8629 496.223 150.953 501.648 281.822 501.648Z" fill="#F2F2F2"/>
<path d="M420.263 116.424H417.571V42.6808C417.571 31.3611 413.074 20.5051 405.07 12.5009C397.066 4.49673 386.21 1.24977e-05 374.89 0H218.655C207.335 -2.14245e-05 196.479 4.49666 188.475 12.5008C180.471 20.505 175.974 31.361 175.974 42.6806V447.243C175.974 458.563 180.471 469.419 188.475 477.423C196.479 485.427 207.335 489.924 218.655 489.924H374.89C386.21 489.924 397.066 485.427 405.07 477.423C413.074 469.419 417.571 458.563 417.571 447.243V168.916H420.263L420.263 116.424Z" fill="#3F3D56"/>
<path d="M408.487 42.9785V446.946C408.487 455.399 405.128 463.507 399.151 469.485C393.173 475.462 385.065 478.821 376.612 478.821H219.627C211.173 478.821 203.065 475.462 197.088 469.485C191.11 463.507 187.752 455.399 187.752 446.946V42.9785C187.752 34.5248 191.11 26.4173 197.088 20.4397C203.065 14.462 211.173 11.1037 219.627 11.1035H238.671C237.735 13.4031 237.379 15.8974 237.633 18.367C237.887 20.8366 238.745 23.2058 240.13 25.2663C241.515 27.3268 243.385 29.0153 245.576 30.1835C247.766 31.3516 250.21 31.9635 252.693 31.9653H342.199C344.681 31.9634 347.126 31.3515 349.316 30.1834C351.507 29.0153 353.377 27.3267 354.762 25.2662C356.147 23.2058 357.004 20.8365 357.259 18.3669C357.513 15.8973 357.157 13.4031 356.221 11.1035H376.612C385.065 11.1037 393.173 14.462 399.151 20.4397C405.128 26.4173 408.486 34.5248 408.487 42.9785Z" fill="white"/>
<path d="M357.914 217.167C356.87 217.713 355.809 218.229 354.729 218.716C353.746 219.16 352.748 219.577 351.734 219.968C351.363 220.109 350.987 220.251 350.61 220.392C347.629 221.473 344.568 222.317 341.454 222.916C339.913 223.219 338.351 223.457 336.769 223.63C335.463 223.778 334.144 223.884 332.811 223.946C331.862 223.993 330.912 224.014 329.956 224.014C326.171 224.015 322.393 223.661 318.674 222.957C317.704 222.782 316.755 222.573 315.806 222.344C311.215 221.244 306.77 219.603 302.565 217.457C302.188 217.268 301.811 217.066 301.434 216.871C300.875 216.575 300.33 216.265 299.785 215.942C300.047 215.579 300.33 215.222 300.619 214.872C303.769 210.968 307.707 207.772 312.174 205.492C316.642 203.212 321.541 201.899 326.55 201.638C331.559 201.378 336.567 202.176 341.247 203.981C345.928 205.785 350.175 208.556 353.713 212.112C354.941 213.344 356.079 214.662 357.119 216.057C357.395 216.42 357.658 216.79 357.914 217.167Z" fill="#5BA02D"/>
<path d="M331.3 187.597C347.625 187.597 360.859 174.363 360.859 158.038C360.859 141.713 347.625 128.479 331.3 128.479C314.975 128.479 301.741 141.713 301.741 158.038C301.741 174.363 314.975 187.597 331.3 187.597Z" fill="#2F2E41"/>
<path d="M339.162 187.638C349.823 181.81 353.741 168.443 347.913 157.782C342.085 147.12 328.718 143.202 318.057 149.03C307.395 154.858 303.477 168.225 309.305 178.887C315.133 189.548 328.5 193.466 339.162 187.638Z" fill="#A0616A"/>
<path d="M351.726 154.496C346.699 157.961 340.732 159.805 334.626 159.781C336.804 161.291 339.284 162.311 341.894 162.771C333.776 164.512 325.386 164.559 317.249 162.909C315.44 162.619 313.695 162.02 312.089 161.137C311.29 160.691 310.593 160.081 310.044 159.347C309.495 158.613 309.107 157.772 308.905 156.879C308.364 153.79 310.771 150.983 313.273 149.092C317.102 146.24 321.518 144.276 326.2 143.34C330.882 142.404 335.714 142.521 340.346 143.682C343.37 144.464 346.399 145.785 348.364 148.213C350.328 150.642 350.91 154.386 349.038 156.887L351.726 154.496Z" fill="#2F2E41"/>
<path d="M329.956 102.842C316.743 102.84 303.892 107.158 293.361 115.138C282.83 123.118 275.197 134.323 271.626 147.044C268.054 159.765 268.739 173.305 273.578 185.601C278.416 197.896 287.142 208.272 298.425 215.148L298.815 215.377C299.138 215.572 299.462 215.76 299.785 215.942C300.33 216.265 300.875 216.575 301.434 216.871C301.811 217.066 302.188 217.268 302.565 217.457C306.77 219.603 311.215 221.244 315.806 222.344C316.755 222.573 317.704 222.782 318.674 222.957C322.394 223.661 326.171 224.015 329.956 224.014C330.912 224.014 331.862 223.993 332.811 223.946C334.144 223.886 335.463 223.78 336.769 223.63C338.351 223.455 339.913 223.217 341.454 222.916C344.568 222.317 347.629 221.473 350.61 220.392C350.987 220.25 351.363 220.109 351.734 219.968C352.75 219.577 353.749 219.16 354.729 218.716C355.806 218.231 356.868 217.715 357.914 217.167C368.393 211.679 377.055 203.268 382.848 192.953C382.875 192.899 382.909 192.845 382.936 192.792C386.026 187.246 388.219 181.245 389.432 175.013C391.135 166.24 390.877 157.198 388.676 148.537C386.476 139.875 382.388 131.806 376.704 124.91C371.02 118.013 363.882 112.458 355.8 108.643C347.719 104.828 338.893 102.847 329.956 102.842H329.956ZM381.832 192.004C381.778 192.098 381.731 192.192 381.677 192.28C375.999 202.442 367.459 210.711 357.119 216.057C356.089 216.595 355.041 217.1 353.975 217.571C353.094 217.968 352.192 218.345 351.283 218.695C350.899 218.844 350.509 218.992 350.118 219.126C347.543 220.067 344.904 220.823 342.222 221.388C340.232 221.812 338.221 222.129 336.197 222.337C334.951 222.472 333.686 222.566 332.413 222.613C331.599 222.647 330.778 222.667 329.956 222.667C326.293 222.672 322.637 222.331 319.038 221.651C316.848 221.247 314.683 220.716 312.555 220.062C309.312 219.06 306.162 217.783 303.137 216.245C302.787 216.063 302.437 215.882 302.093 215.693C301.602 215.431 301.104 215.161 300.619 214.872C300.256 214.67 299.892 214.454 299.535 214.239C299.327 214.118 299.118 213.99 298.909 213.862C289.017 207.787 281.125 198.941 276.214 188.422C271.304 177.902 269.589 166.173 271.284 154.688C272.978 143.203 278.008 132.469 285.747 123.816C293.487 115.164 303.597 108.974 314.823 106.015C326.049 103.056 337.896 103.457 348.895 107.17C359.895 110.883 369.562 117.744 376.698 126.901C383.834 136.058 388.124 147.109 389.037 158.682C389.949 170.255 387.444 181.842 381.831 192.004H381.832Z" fill="#3F3D56"/>
<path d="M316.331 128.886C316.013 125.542 311.916 123.483 308.712 124.493C305.508 125.504 303.405 128.73 302.769 132.028C302.463 133.417 302.434 134.853 302.684 136.254C302.934 137.654 303.458 138.991 304.226 140.189C305.846 142.519 308.822 143.974 311.598 143.382C314.766 142.707 316.962 139.613 317.59 136.434C318.218 133.256 317.594 129.979 316.971 126.8L316.331 128.886Z" fill="#2F2E41"/>
<path d="M361.422 133.664C361.104 130.32 357.007 128.261 353.803 129.271C350.599 130.281 348.496 133.507 347.86 136.806C347.554 138.195 347.525 139.631 347.775 141.031C348.025 142.432 348.549 143.769 349.317 144.966C350.937 147.297 353.913 148.752 356.689 148.16C359.857 147.485 362.053 144.391 362.681 141.212C363.309 138.034 362.685 134.757 362.063 131.577L361.422 133.664Z" fill="#2F2E41"/>
<path d="M225.234 187.641C224.815 187.64 224.401 187.552 224.017 187.383C223.634 187.213 223.29 186.965 223.008 186.655L189.604 150.214C189.225 149.801 188.764 149.472 188.252 149.246C187.739 149.02 187.185 148.903 186.624 148.903H162.641C159.962 148.9 157.394 147.834 155.5 145.94C153.606 144.046 152.54 141.478 152.537 138.799V75.1415C152.54 72.4627 153.606 69.8945 155.5 68.0003C157.394 66.1061 159.962 65.0406 162.641 65.0376H238.799C241.478 65.0406 244.046 66.1061 245.941 68.0003C247.835 69.8945 248.9 72.4627 248.903 75.1415V138.799C248.9 141.478 247.835 144.046 245.941 145.94C244.046 147.834 241.478 148.9 238.799 148.903H232.316C231.244 148.904 230.217 149.33 229.459 150.088C228.701 150.846 228.275 151.873 228.274 152.945V184.607C228.276 185.218 228.093 185.816 227.748 186.32C227.403 186.825 226.912 187.212 226.341 187.431C225.989 187.569 225.613 187.64 225.234 187.641Z" fill="white"/>
<path d="M225.234 187.641C224.815 187.64 224.401 187.553 224.017 187.383C223.634 187.213 223.291 186.965 223.008 186.655L189.604 150.214C189.225 149.801 188.764 149.472 188.252 149.246C187.739 149.02 187.185 148.904 186.624 148.903L161 148.014C158.321 148.011 155.753 146.945 153.859 145.051C151.965 143.157 150.899 140.589 150.896 137.91V74.2526C150.899 71.5738 151.965 69.0056 153.859 67.1114C155.753 65.2172 158.321 64.1517 161 64.1487L238.799 65.0377C241.478 65.0407 244.046 66.1062 245.941 68.0004C247.835 69.8946 248.9 72.4628 248.903 75.1416V138.799C248.9 141.478 247.835 144.046 245.941 145.94C244.046 147.834 241.478 148.9 238.799 148.903H232.316C231.244 148.904 230.217 149.33 229.459 150.088C228.701 150.846 228.275 151.874 228.274 152.945V184.607C228.276 185.218 228.093 185.816 227.748 186.32C227.403 186.825 226.912 187.212 226.342 187.432C225.989 187.57 225.613 187.641 225.234 187.641ZM161 65.495C158.678 65.4977 156.452 66.4212 154.81 68.063C153.169 69.7048 152.245 71.9307 152.242 74.2526V137.91C152.245 140.232 153.169 142.458 154.81 144.1C156.452 145.741 158.678 146.665 161 146.668L186.624 147.557C187.371 147.557 188.11 147.713 188.794 148.014C189.477 148.315 190.091 148.754 190.596 149.304L224.001 185.745C224.23 185.995 224.53 186.171 224.86 186.248C225.191 186.325 225.537 186.3 225.853 186.177C226.17 186.054 226.441 185.838 226.633 185.558C226.825 185.278 226.927 184.946 226.927 184.607V152.945C226.929 151.517 227.497 150.147 228.507 149.137C229.517 148.126 230.887 147.558 232.316 147.557H238.799C241.121 147.554 243.347 146.63 244.989 144.989C246.631 143.347 247.554 141.121 247.557 138.799V75.1416C247.554 72.8198 246.631 70.5938 244.989 68.952C243.347 67.3102 241.121 66.3867 238.799 66.3841L161 65.495Z" fill="#3F3D56"/>
<path d="M169.841 92.6826C174.724 92.6826 178.683 88.7243 178.683 83.8413C178.683 78.9584 174.724 75 169.841 75C164.958 75 161 78.9584 161 83.8413C161 88.7243 164.958 92.6826 169.841 92.6826Z" fill="#5BA02D"/>
<path d="M373.658 403.522C373.088 403.303 372.597 402.915 372.252 402.411C371.907 401.906 371.724 401.308 371.726 400.697V369.036C371.725 367.964 371.299 366.936 370.541 366.179C369.783 365.421 368.756 364.994 367.684 364.993H361.201C358.522 364.99 355.954 363.925 354.059 362.031C352.165 360.136 351.1 357.568 351.097 354.889V291.232C351.1 288.553 352.165 285.985 354.059 284.091C355.954 282.196 358.522 281.131 361.201 281.128L437 281.128C439.679 281.131 442.247 282.196 444.141 284.09C446.035 285.985 447.101 288.553 447.104 291.232V354.889C447.101 357.568 446.035 360.136 444.141 362.03C442.247 363.924 439.679 364.99 437 364.993L413.376 364.993C412.815 364.994 412.261 365.111 411.748 365.336C411.236 365.562 410.775 365.891 410.396 366.304L376.991 402.745C376.709 403.055 376.366 403.303 375.983 403.473C375.599 403.643 375.185 403.731 374.766 403.731C374.387 403.731 374.011 403.66 373.658 403.522Z" fill="white"/>
<path d="M373.658 403.521C373.088 403.302 372.597 402.915 372.252 402.41C371.907 401.906 371.724 401.308 371.726 400.697V369.035C371.725 367.964 371.299 366.936 370.541 366.178C369.783 365.42 368.756 364.994 367.684 364.993H361.201C358.522 364.99 355.954 363.924 354.059 362.03C352.165 360.136 351.1 357.568 351.097 354.889V291.232C351.1 288.553 352.165 285.985 354.059 284.09C355.954 282.196 358.522 281.131 361.201 281.128L437.5 281.529C440.179 281.532 442.747 282.597 444.641 284.491C446.535 286.386 447.601 288.954 447.604 291.633V355.29C447.601 357.969 446.535 360.537 444.641 362.431C442.747 364.325 440.179 365.391 437.5 365.394L413.376 364.993C412.815 364.994 412.261 365.11 411.748 365.336C411.236 365.562 410.775 365.891 410.396 366.304L376.991 402.745C376.709 403.055 376.366 403.303 375.983 403.473C375.599 403.643 375.185 403.73 374.766 403.731C374.387 403.73 374.011 403.659 373.658 403.521ZM361.201 282.474C358.879 282.477 356.653 283.4 355.011 285.042C353.369 286.684 352.446 288.91 352.443 291.232V354.889C352.446 357.211 353.369 359.437 355.011 361.079C356.653 362.72 358.879 363.644 361.201 363.647H367.684C369.113 363.648 370.483 364.216 371.493 365.227C372.503 366.237 373.071 367.607 373.073 369.035V400.697C373.073 401.036 373.175 401.368 373.367 401.648C373.559 401.928 373.83 402.144 374.147 402.267C374.463 402.39 374.809 402.414 375.14 402.337C375.47 402.26 375.77 402.085 375.999 401.835L409.404 365.394C409.909 364.844 410.523 364.405 411.206 364.104C411.89 363.803 412.629 363.647 413.376 363.647L437.5 364.048C439.822 364.045 442.048 363.121 443.69 361.48C445.331 359.838 446.255 357.612 446.258 355.29V291.633C446.255 289.311 445.331 287.085 443.69 285.443C442.048 283.801 439.822 282.878 437.5 282.875L361.201 282.474Z" fill="#3F3D56"/>
<path d="M365.048 348V327.2H372.472C373.56 327.2 374.573 327.285 375.512 327.456C376.472 327.605 377.304 327.872 378.008 328.256C378.712 328.64 379.267 329.173 379.672 329.856C380.077 330.517 380.28 331.36 380.28 332.384C380.28 332.832 380.205 333.291 380.056 333.76C379.928 334.208 379.715 334.645 379.416 335.072C379.139 335.477 378.776 335.84 378.328 336.16C377.88 336.48 377.357 336.715 376.76 336.864V336.992C378.232 337.291 379.331 337.835 380.056 338.624C380.803 339.392 381.176 340.469 381.176 341.856C381.176 342.923 380.963 343.851 380.536 344.64C380.131 345.408 379.555 346.048 378.808 346.56C378.083 347.051 377.229 347.413 376.248 347.648C375.267 347.883 374.221 348 373.112 348H365.048ZM370.552 335.392H372.344C373.24 335.392 373.891 335.189 374.296 334.784C374.701 334.379 374.904 333.856 374.904 333.216C374.904 332.576 374.701 332.117 374.296 331.84C373.891 331.563 373.24 331.424 372.344 331.424H370.552V335.392ZM370.552 343.776H372.728C373.816 343.776 374.595 343.573 375.064 343.168C375.555 342.763 375.8 342.176 375.8 341.408C375.8 340.64 375.555 340.085 375.064 339.744C374.595 339.403 373.816 339.232 372.728 339.232H370.552V343.776ZM383.052 348L388.396 339.68L383.372 332H389.26L390.572 334.24C390.806 334.688 391.062 335.147 391.34 335.616C391.638 336.085 391.905 336.544 392.14 336.992H392.268C392.438 336.544 392.63 336.085 392.844 335.616C393.057 335.147 393.249 334.688 393.42 334.24L394.476 332H400.204L395.148 340.32L400.492 348H394.604L393.132 345.76C392.854 345.312 392.566 344.853 392.268 344.384C391.969 343.915 391.681 343.456 391.404 343.008H391.276C391.062 343.456 390.838 343.915 390.604 344.384C390.39 344.832 390.177 345.291 389.964 345.76L388.78 348H383.052ZM409.983 354.592C408.98 354.592 408.042 354.517 407.167 354.368C406.314 354.24 405.556 354.016 404.895 353.696C404.234 353.376 403.711 352.96 403.327 352.448C402.964 351.957 402.783 351.349 402.783 350.624C402.783 349.344 403.594 348.32 405.215 347.552V347.424C404.767 347.125 404.383 346.763 404.063 346.336C403.764 345.909 403.615 345.355 403.615 344.672C403.615 344.117 403.796 343.573 404.159 343.04C404.522 342.507 404.98 342.048 405.535 341.664V341.536C404.916 341.152 404.394 340.608 403.967 339.904C403.562 339.2 403.359 338.379 403.359 337.44C403.359 336.459 403.551 335.605 403.935 334.88C404.319 334.133 404.842 333.525 405.503 333.056C406.164 332.565 406.911 332.203 407.743 331.968C408.596 331.733 409.492 331.616 410.431 331.616C411.434 331.616 412.34 331.744 413.151 332H419.615V335.968H416.735C416.842 336.16 416.938 336.405 417.023 336.704C417.13 337.003 417.183 337.312 417.183 337.632C417.183 338.571 417.012 339.381 416.671 340.064C416.33 340.725 415.85 341.269 415.231 341.696C414.634 342.123 413.919 342.443 413.087 342.656C412.276 342.848 411.391 342.944 410.431 342.944C409.812 342.944 409.14 342.869 408.415 342.72C408.223 342.869 408.084 343.008 407.999 343.136C407.935 343.243 407.903 343.413 407.903 343.648C407.903 344.011 408.095 344.267 408.479 344.416C408.863 344.544 409.503 344.608 410.399 344.608H413.119C415.252 344.608 416.895 344.939 418.047 345.6C419.199 346.24 419.775 347.296 419.775 348.768C419.775 349.643 419.54 350.432 419.071 351.136C418.623 351.861 417.972 352.48 417.119 352.992C416.266 353.504 415.231 353.899 414.015 354.176C412.82 354.453 411.476 354.592 409.983 354.592ZM410.431 339.68C410.964 339.68 411.423 339.499 411.807 339.136C412.191 338.773 412.383 338.208 412.383 337.44C412.383 336.693 412.191 336.149 411.807 335.808C411.423 335.445 410.964 335.264 410.431 335.264C409.898 335.264 409.439 335.445 409.055 335.808C408.692 336.149 408.511 336.693 408.511 337.44C408.511 338.208 408.692 338.773 409.055 339.136C409.439 339.499 409.898 339.68 410.431 339.68ZM410.847 351.2C411.935 351.2 412.82 351.061 413.503 350.784C414.207 350.528 414.559 350.176 414.559 349.728C414.559 349.301 414.346 349.035 413.919 348.928C413.492 348.821 412.874 348.768 412.063 348.768H410.463C409.844 348.768 409.354 348.747 408.991 348.704C408.628 348.683 408.308 348.64 408.031 348.576C407.754 348.768 407.551 348.949 407.423 349.12C407.295 349.291 407.231 349.493 407.231 349.728C407.231 350.24 407.562 350.613 408.223 350.848C408.884 351.083 409.759 351.2 410.847 351.2ZM429.395 348.384C427.667 348.384 426.152 348.128 424.851 347.616C423.571 347.104 422.525 346.4 421.715 345.504L424.211 342.048C424.893 342.624 425.64 343.093 426.451 343.456C427.261 343.797 428.051 343.968 428.819 343.968C429.821 343.968 430.632 343.808 431.251 343.488C431.891 343.168 432.211 342.688 432.211 342.048C432.211 341.664 432.125 341.323 431.955 341.024C431.805 340.725 431.517 340.469 431.091 340.256C430.664 340.043 430.088 339.883 429.363 339.776C428.637 339.669 427.709 339.616 426.579 339.616V335.776C428.413 335.776 429.704 335.573 430.451 335.168C431.197 334.741 431.571 334.176 431.571 333.472C431.571 332.853 431.347 332.395 430.899 332.096C430.451 331.776 429.821 331.616 429.01 331.616C428.264 331.616 427.581 331.755 426.963 332.032C426.344 332.309 425.683 332.725 424.979 333.28L422.227 329.952C423.272 329.12 424.371 328.48 425.523 328.032C426.696 327.563 427.944 327.328 429.267 327.328C430.44 327.328 431.507 327.456 432.467 327.712C433.427 327.968 434.248 328.341 434.931 328.832C435.613 329.301 436.136 329.899 436.499 330.624C436.883 331.328 437.075 332.139 437.075 333.056C437.075 334.037 436.755 334.891 436.115 335.616C435.496 336.341 434.579 336.949 433.363 337.44V337.568C434.621 337.931 435.656 338.517 436.467 339.328C437.299 340.117 437.715 341.152 437.715 342.432C437.715 343.392 437.48 344.245 437.01 344.992C436.563 345.717 435.955 346.336 435.187 346.848C434.419 347.36 433.533 347.744 432.531 348C431.528 348.256 430.483 348.384 429.395 348.384Z" fill="black"/>
<path d="M302.376 423.234C292.998 429.239 282.132 432.514 270.997 432.691C259.862 432.868 248.898 429.941 239.333 424.237C241.016 421.105 243.148 418.236 245.661 415.721C249.54 411.824 254.259 408.869 259.458 407.081C264.657 405.293 270.197 404.72 275.652 405.407C281.106 406.095 286.331 408.023 290.924 411.044C295.517 414.066 299.357 418.1 302.147 422.837C302.221 422.965 302.302 423.099 302.376 423.234Z" fill="#5BA02D"/>
<path d="M268.223 391.042C284.656 391.042 297.978 377.72 297.978 361.287C297.978 344.853 284.656 331.531 268.223 331.531C251.789 331.531 238.467 344.853 238.467 361.287C238.467 377.72 251.789 391.042 268.223 391.042Z" fill="#2F2E41"/>
<path d="M290.364 382.275C296.23 371.542 292.286 358.086 281.554 352.22C270.822 346.353 257.366 350.297 251.499 361.029C245.632 371.761 249.576 385.217 260.309 391.084C271.041 396.951 284.497 393.007 290.364 382.275Z" fill="#FFB8B8"/>
<path d="M247.661 357.722C252.721 361.21 258.728 363.066 264.874 363.042C262.682 364.562 260.186 365.589 257.559 366.052C265.73 367.805 274.176 367.852 282.367 366.191C284.188 365.899 285.945 365.296 287.561 364.407C288.366 363.958 289.068 363.343 289.62 362.605C290.172 361.866 290.563 361.02 290.767 360.12C291.311 357.011 288.888 354.186 286.37 352.282C282.515 349.411 278.07 347.433 273.356 346.492C268.643 345.55 263.779 345.667 259.117 346.836C256.073 347.623 253.023 348.952 251.046 351.397C249.068 353.842 248.483 357.611 250.366 360.129L247.661 357.722Z" fill="#2F2E41"/>
<path d="M270.044 433.372C255.471 433.367 241.388 428.109 230.379 418.561C219.37 409.013 212.173 395.816 210.107 381.391C208.041 366.965 211.246 352.279 219.133 340.025C227.02 327.771 239.06 318.771 253.046 314.677C267.032 310.583 282.025 311.668 295.275 317.735C308.525 323.801 319.143 334.441 325.183 347.703C331.223 360.965 332.278 375.96 328.156 389.938C324.034 403.915 315.01 415.938 302.74 423.8C292.983 430.057 281.634 433.379 270.044 433.372ZM270.044 313.546C258.326 313.545 246.87 317.019 237.127 323.529C227.383 330.038 219.788 339.291 215.304 350.117C210.819 360.943 209.645 372.855 211.931 384.348C214.217 395.841 219.859 406.398 228.145 414.684C236.431 422.97 246.988 428.613 258.481 430.899C269.974 433.185 281.887 432.011 292.713 427.526C303.539 423.041 312.791 415.447 319.301 405.703C325.81 395.959 329.284 384.504 329.283 372.786C329.265 357.08 323.018 342.023 311.913 330.917C300.807 319.811 285.749 313.564 270.044 313.546Z" fill="#3F3D56"/>
<path d="M369.841 311.683C374.724 311.683 378.683 307.724 378.683 302.841C378.683 297.958 374.724 294 369.841 294C364.958 294 361 297.958 361 302.841C361 307.724 364.958 311.683 369.841 311.683Z" fill="#5BA02D"/>
<path d="M373.374 409.548C382.484 409.548 389.869 408.729 389.869 407.717C389.869 406.706 382.484 405.887 373.374 405.887C364.264 405.887 356.878 406.706 356.878 407.717C356.878 408.729 364.264 409.548 373.374 409.548Z" fill="#F2F2F2"/>
<path d="M225.948 194.131C235.058 194.131 242.443 193.312 242.443 192.301C242.443 191.29 235.058 190.47 225.948 190.47C216.838 190.47 209.452 191.29 209.452 192.301C209.452 193.312 216.838 194.131 225.948 194.131Z" fill="#F2F2F2"/>
<path d="M171.92 130V109.2H177.488L180.976 118.48L182.672 123.152H182.8C182.736 122.597 182.661 121.989 182.576 121.328C182.491 120.667 182.405 119.995 182.32 119.312C182.235 118.608 182.16 117.915 182.096 117.232C182.053 116.528 182.032 115.856 182.032 115.216V109.2H187.28V130H181.712L178.224 120.688L176.528 116.048H176.4C176.528 117.243 176.688 118.544 176.88 119.952C177.072 121.36 177.168 122.704 177.168 123.984V130H171.92ZM195.652 130V118.288H191.556V114.192L195.652 114V113.936C195.652 113.04 195.79 112.197 196.068 111.408C196.345 110.597 196.782 109.893 197.38 109.296C197.998 108.699 198.766 108.229 199.684 107.888C200.622 107.525 201.753 107.344 203.076 107.344C204.036 107.344 204.932 107.44 205.764 107.632C206.617 107.803 207.364 107.984 208.003 108.176L206.98 112.208C206.532 112.037 206.03 111.899 205.476 111.792C204.921 111.685 204.356 111.632 203.78 111.632C202.905 111.632 202.244 111.803 201.796 112.144C201.369 112.485 201.156 113.083 201.156 113.936V114H206.212V118.288H201.156V130H195.652ZM218.487 130.384C217.463 130.384 216.45 130.203 215.447 129.84C214.466 129.456 213.57 128.859 212.759 128.048C211.97 127.237 211.33 126.192 210.839 124.912C210.348 123.611 210.103 122.043 210.103 120.208C210.103 118.373 210.348 116.773 210.839 115.408C211.351 114.043 212.012 112.912 212.823 112.016C213.655 111.12 214.594 110.448 215.639 110C216.706 109.552 217.804 109.328 218.935 109.328C220.471 109.328 221.804 109.584 222.935 110.096C224.087 110.608 225.015 111.205 225.719 111.888L222.839 115.152C222.455 114.789 221.954 114.469 221.335 114.192C220.716 113.893 220.087 113.744 219.447 113.744C218.892 113.744 218.37 113.84 217.879 114.032C217.388 114.224 216.94 114.533 216.535 114.96C216.151 115.387 215.831 115.963 215.575 116.688C215.34 117.392 215.191 118.256 215.127 119.28C215.81 118.597 216.578 118.085 217.431 117.744C218.284 117.381 219.042 117.2 219.703 117.2C220.556 117.2 221.367 117.328 222.135 117.584C222.903 117.819 223.564 118.192 224.119 118.704C224.695 119.216 225.143 119.867 225.463 120.656C225.804 121.445 225.975 122.384 225.975 123.472C225.975 124.56 225.772 125.531 225.367 126.384C224.962 127.237 224.418 127.963 223.735 128.56C223.052 129.157 222.252 129.616 221.335 129.936C220.439 130.235 219.49 130.384 218.487 130.384ZM218.359 126.288C218.679 126.288 218.999 126.245 219.319 126.16C219.639 126.053 219.916 125.893 220.151 125.68C220.407 125.467 220.61 125.179 220.759 124.816C220.908 124.453 220.983 124.005 220.983 123.472C220.983 122.576 220.738 121.947 220.247 121.584C219.778 121.221 219.191 121.04 218.487 121.04C217.954 121.04 217.42 121.179 216.887 121.456C216.354 121.712 215.82 122.149 215.287 122.768C215.415 123.493 215.596 124.091 215.831 124.56C216.066 125.008 216.322 125.36 216.599 125.616C216.898 125.872 217.196 126.053 217.495 126.16C217.794 126.245 218.082 126.288 218.359 126.288Z" fill="black"/>
</g>
<defs>
<clipPath id="clip0">
<rect width="600" height="501.648" fill="white"/>
</clipPath>
</defs>
</svg>
