<svg width="600" height="429" viewBox="0 0 600 429" fill="none" xmlns="http://www.w3.org/2000/svg">
<g clip-path="url(#clip0)">
<path d="M46.8344 59.8635C60.7431 59.8635 72.0184 48.5882 72.0184 34.6794C72.0184 20.7707 60.7431 9.49542 46.8344 9.49542C32.9257 9.49542 21.6504 20.7707 21.6504 34.6794C21.6504 48.5882 32.9257 59.8635 46.8344 59.8635Z" fill="#FFC165"/>
<path d="M202.537 411.715C222.571 420.014 243.841 424.937 265.484 426.283C275.624 426.914 285.955 426.945 296.042 425.606C304.881 424.432 313.859 422.023 321.227 416.811C328.592 411.512 333.776 403.714 335.813 394.873C338.066 385.554 337.118 375.79 333.9 366.815C330.578 357.523 325.328 349.039 318.493 341.922C312.366 335.651 303.783 329.946 294.605 331.02C285.783 332.052 279.368 339.183 277.018 347.434C274.201 357.326 277.442 367.79 281.837 376.695C289.292 391.801 301.257 404.481 315.426 413.496C329.68 422.621 346.067 427.873 362.97 428.732C379.907 429.494 398.123 425.567 411.468 414.624C418.496 408.912 423.515 401.104 425.791 392.338C428.161 383.087 427.541 373.317 425.49 364.07C421.039 343.994 409.28 326.737 402.471 307.52C400.783 302.831 399.484 298.011 398.585 293.109C398.361 291.851 396.445 292.384 396.668 293.638C400.189 313.406 411.332 330.427 418.646 348.836C425.309 365.606 429.275 386.193 419.405 402.567C410.526 417.296 392.894 424.475 376.45 426.308C360.37 428.1 343.909 425.219 329.168 418.632C314.332 412.002 301.036 401.673 291.39 388.552C286.147 381.42 281.631 373.342 279.315 364.76C276.945 355.975 277.501 346.023 283.771 338.928C286.539 335.699 290.392 333.593 294.605 333.008C298.982 332.46 303.365 333.686 307.212 335.731C315.472 340.121 321.618 347.751 326.361 355.642C331.26 363.794 334.713 373.034 335.055 382.614C335.374 391.519 333.037 400.65 327.683 407.859C316.63 422.743 295.856 424.55 278.808 424.664C257.911 424.793 237.131 421.551 217.267 415.063C212.466 413.494 207.733 411.739 203.066 409.797C201.886 409.307 201.371 411.23 202.537 411.715H202.537Z" fill="#E6E6E6"/>
<path d="M150.854 347.21L145.515 339.014C144.893 338.057 144.676 336.891 144.911 335.774C145.147 334.656 145.817 333.678 146.773 333.054L179.295 307.773C180.253 307.151 181.419 306.934 182.536 307.17C183.653 307.406 184.632 308.075 185.256 309.031L190.595 317.227C191.218 318.185 191.435 319.35 191.199 320.468C190.963 321.585 190.294 322.564 189.337 323.188L156.815 348.469C155.857 349.091 154.692 349.308 153.574 349.072C152.457 348.836 151.479 348.167 150.854 347.21Z" fill="#2F2E41"/>
<path d="M146.808 333.091L155.386 328.389C156.388 327.841 157.566 327.713 158.663 328.033C159.759 328.353 160.684 329.095 161.234 330.096L184.009 371.131C184.557 372.133 184.685 373.312 184.365 374.408C184.045 375.505 183.303 376.429 182.302 376.979L173.724 381.681C172.722 382.229 171.543 382.357 170.447 382.037C169.351 381.717 168.426 380.975 167.876 379.974L145.101 338.939C144.553 337.937 144.425 336.758 144.745 335.662C145.065 334.565 145.807 333.641 146.808 333.091Z" fill="#2F2E41"/>
<path d="M87.1869 257.578C86.0943 257.576 85.0431 257.159 84.2462 256.412C83.4493 255.664 82.9663 254.642 82.8948 253.551L82.2556 243.791C82.1809 242.651 82.5621 241.527 83.3155 240.669C84.0688 239.81 85.1325 239.285 86.2726 239.21L162.744 234.202C163.95 234.123 165.159 234.283 166.303 234.671C167.446 235.059 168.503 235.669 169.411 236.466C170.319 237.262 171.061 238.23 171.596 239.313C172.13 240.397 172.445 241.575 172.524 242.78C172.603 243.986 172.444 245.195 172.056 246.339C171.667 247.483 171.057 248.539 170.261 249.447C169.464 250.355 168.497 251.098 167.413 251.632C166.33 252.166 165.152 252.482 163.946 252.561L87.475 257.568C87.3787 257.574 87.2827 257.577 87.1869 257.578Z" fill="#5BA02D" fill-opacity="0.9"/>
<path d="M102.266 258.836C101.152 258.834 100.082 258.401 99.2798 257.628C98.4778 256.855 98.0059 255.802 97.963 254.689L97.418 240.11C97.3969 239.545 97.4873 238.981 97.6842 238.45C97.881 237.92 98.1804 237.433 98.5652 237.019C98.95 236.604 99.4127 236.269 99.927 236.034C100.441 235.798 100.997 235.666 101.562 235.644L164.447 233.294C165.588 233.252 166.7 233.664 167.538 234.441C168.375 235.218 168.87 236.296 168.912 237.438L169.457 252.017C169.479 252.582 169.388 253.146 169.191 253.677C168.994 254.207 168.695 254.693 168.31 255.108C167.925 255.523 167.463 255.858 166.949 256.093C166.434 256.329 165.879 256.461 165.313 256.482L102.429 258.833C102.374 258.835 102.32 258.836 102.266 258.836Z" fill="#CCCCCC"/>
<path d="M203.24 412.975V381.336C203.24 353.717 191.191 327.231 169.691 309.895C153.621 296.938 130.345 287.249 97.0011 289.414L109.704 238.604L6.10352e-05 313.664L107.394 388.724L96.4237 340.801C96.4237 340.801 163.401 328.099 203.24 412.975Z" fill="#3F3D56"/>
<path d="M126.519 362.964L118.607 357.212C117.684 356.539 117.066 355.528 116.887 354.4C116.709 353.271 116.986 352.119 117.656 351.194L165.6 285.255C166.273 284.332 167.284 283.714 168.412 283.536C169.54 283.357 170.693 283.634 171.617 284.305L179.529 290.057C180.452 290.73 181.07 291.741 181.248 292.869C181.427 293.997 181.15 295.15 180.48 296.074L132.536 362.013C131.863 362.936 130.852 363.555 129.724 363.733C128.596 363.911 127.443 363.635 126.519 362.964Z" fill="#2F2E41"/>
<path d="M117.702 351.216L124.039 343.764C124.779 342.895 125.835 342.355 126.973 342.263C128.111 342.171 129.24 342.534 130.111 343.273L166.025 373.485C166.894 374.226 167.434 375.281 167.526 376.42C167.618 377.558 167.255 378.686 166.516 379.557L160.18 387.009C159.439 387.879 158.384 388.418 157.245 388.511C156.107 388.603 154.979 388.239 154.108 387.501L118.194 357.289C117.324 356.548 116.784 355.492 116.692 354.354C116.6 353.216 116.963 352.087 117.702 351.216Z" fill="#2F2E41"/>
<path d="M161.1 218.003C179.767 218.003 194.9 202.871 194.9 184.204C194.9 165.537 179.767 150.404 161.1 150.404C142.433 150.404 127.301 165.537 127.301 184.204C127.301 202.871 142.433 218.003 161.1 218.003Z" fill="#5BA02D" fill-opacity="0.9"/>
<path d="M146.232 199.091C145.088 199.115 143.952 198.894 142.9 198.442C142.19 198.105 141.563 197.617 141.061 197.012C140.56 196.407 140.197 195.7 139.997 194.94C139.845 194.401 139.82 193.836 139.923 193.286C140.026 192.736 140.255 192.218 140.592 191.772C141.474 190.639 142.998 190.1 144.792 190.238L140.353 177.812L141.601 177.366L146.82 191.974L145.643 191.707C144.279 191.399 142.51 191.467 141.637 192.587C141.426 192.876 141.284 193.21 141.223 193.563C141.161 193.915 141.182 194.278 141.284 194.621C141.435 195.186 141.707 195.712 142.08 196.163C142.453 196.614 142.919 196.979 143.445 197.234C145.29 198.066 147.449 197.77 149.876 197.33L150.112 198.634C148.835 198.902 147.536 199.055 146.232 199.091Z" fill="#2F2E41"/>
<path d="M134.229 180.251L127.243 181.719L127.515 183.016L134.502 181.548L134.229 180.251Z" fill="#2F2E41"/>
<path d="M156.281 175.618L149.295 177.086L149.567 178.383L156.553 176.915L156.281 175.618Z" fill="#2F2E41"/>
<path d="M189.323 329.266H132.328C130.834 329.265 129.402 328.67 128.346 327.614C127.29 326.558 126.696 325.126 126.694 323.633L138.626 232.132C138.636 230.646 139.233 229.223 140.288 228.176C141.343 227.128 142.77 226.541 144.257 226.542H164.484C172.563 226.551 180.308 229.764 186.021 235.477C191.734 241.19 194.947 248.935 194.956 257.015V323.633C194.954 325.126 194.36 326.558 193.304 327.614C192.248 328.67 190.816 329.265 189.323 329.266Z" fill="#CCCCCC"/>
<path d="M100.319 291.062C99.4872 291.063 98.6731 290.823 97.9746 290.371C97.2761 289.92 96.7229 289.276 96.3817 288.518L92.3781 279.593C92.1466 279.077 92.0189 278.52 92.0025 277.954C91.9861 277.389 92.0813 276.826 92.2825 276.297C92.4838 275.768 92.7872 275.285 93.1755 274.873C93.5638 274.462 94.0293 274.131 94.5455 273.899L164.467 242.532C165.569 242.038 166.758 241.765 167.966 241.73C169.173 241.695 170.376 241.899 171.504 242.328C172.633 242.758 173.667 243.406 174.545 244.235C175.424 245.064 176.13 246.058 176.625 247.16C177.119 248.262 177.392 249.451 177.427 250.658C177.462 251.866 177.259 253.068 176.829 254.197C176.399 255.326 175.751 256.359 174.922 257.238C174.093 258.116 173.099 258.823 171.997 259.318L102.076 290.685C101.523 290.933 100.924 291.062 100.319 291.062Z" fill="#5BA02D" fill-opacity="0.9"/>
<path d="M120.714 286.454C119.882 286.455 119.068 286.215 118.369 285.764C117.671 285.312 117.118 284.668 116.777 283.91L109.938 268.666C109.472 267.623 109.438 266.438 109.845 265.371C110.251 264.304 111.064 263.441 112.106 262.972L169.521 237.216C170.038 236.984 170.594 236.856 171.16 236.84C171.725 236.823 172.288 236.919 172.817 237.12C173.346 237.321 173.83 237.624 174.241 238.013C174.653 238.401 174.984 238.867 175.215 239.383L182.054 254.627C182.285 255.143 182.413 255.699 182.429 256.265C182.446 256.83 182.35 257.394 182.149 257.922C181.948 258.451 181.645 258.935 181.256 259.346C180.868 259.758 180.402 260.089 179.886 260.32L122.47 286.077C121.918 286.326 121.319 286.454 120.714 286.454Z" fill="#CCCCCC"/>
<path d="M153.601 163.012C148.097 160.985 143.574 166.326 138.587 167.548C133.817 168.718 128.677 165.966 126.129 161.955C123.156 157.276 123.892 151.2 126.597 146.581C129.559 141.521 134.833 138.417 140.424 137.061C146.831 135.506 153.507 136.271 159.831 137.849C165.896 139.27 171.777 141.387 177.356 144.159C182.399 146.769 187.179 150.34 190.127 155.286C192.806 159.781 194.131 165.375 192.805 170.525C192.075 173.184 190.673 175.609 188.733 177.568C186.736 179.681 184.449 181.513 182.587 183.754C179.773 187.144 177.881 192.698 180.656 196.708C181.258 197.585 182.066 198.301 183.01 198.793C184.143 199.383 185.15 197.668 184.013 197.076C182.017 196.037 181.293 193.927 181.346 191.776C181.454 189.334 182.387 187.002 183.993 185.16C185.943 182.817 188.354 180.92 190.412 178.68C192.404 176.593 193.862 174.055 194.662 171.283C196.125 165.921 194.981 160.081 192.391 155.251C189.589 150.023 184.891 146.076 179.779 143.208C174.216 140.086 168.033 137.993 161.894 136.332C155.308 134.549 148.391 133.545 141.613 134.779C135.737 135.848 129.994 138.685 126.299 143.484C122.85 147.964 121.202 154.071 122.87 159.583C123.662 162.079 125.105 164.319 127.049 166.073C128.994 167.826 131.371 169.029 133.936 169.559C136.543 170.039 139.235 169.687 141.633 168.555C144.215 167.398 146.561 165.599 149.308 164.829C150.54 164.452 151.862 164.488 153.072 164.929C154.274 165.372 154.793 163.451 153.601 163.012Z" fill="#2F2E41"/>
<path d="M396.76 297.68V266.041C396.76 238.423 408.809 211.936 430.309 194.6C446.379 181.643 469.655 171.954 502.999 174.119L490.296 123.309L600 198.369L492.606 273.43L503.576 225.506C503.576 225.506 436.599 212.804 396.76 297.68Z" fill="#3F3D56"/>
<path d="M456.391 139.383C454.975 138.241 453.93 136.704 453.387 134.967C452.845 133.231 452.83 131.372 453.344 129.627C453.857 127.882 454.877 126.328 456.274 125.162C457.671 123.997 459.382 123.271 461.191 123.078L537.393 114.942C538.529 114.822 539.666 115.157 540.555 115.874C541.443 116.592 542.011 117.632 542.134 118.768L541.804 118.803L542.134 118.768L543.172 128.494C543.233 129.057 543.181 129.625 543.021 130.168C542.862 130.711 542.597 131.217 542.241 131.657C541.886 132.097 541.448 132.463 540.951 132.734C540.454 133.005 539.909 133.175 539.346 133.235L463.144 141.371C462.814 141.407 462.482 141.424 462.15 141.424C460.053 141.426 458.019 140.705 456.391 139.383Z" fill="#5BA02D" fill-opacity="0.9"/>
<path d="M478.838 206.577V196.795C478.839 195.653 479.293 194.558 480.101 193.75C480.909 192.943 482.004 192.489 483.146 192.487H564.672C565.814 192.489 566.909 192.943 567.716 193.75C568.524 194.558 568.978 195.653 568.979 196.795V206.577C568.978 207.719 568.524 208.814 567.716 209.621C566.909 210.429 565.814 210.883 564.672 210.884H483.146C482.004 210.883 480.909 210.429 480.101 209.621C479.293 208.814 478.839 207.719 478.838 206.577Z" fill="#5BA02D" fill-opacity="0.9"/>
<path d="M439.858 207.053C439.352 206.799 438.901 206.448 438.531 206.02C438.162 205.591 437.881 205.094 437.705 204.556L434.638 195.267C434.281 194.182 434.369 193 434.883 191.98C435.397 190.96 436.294 190.185 437.378 189.826L514.794 164.265C515.878 163.907 517.061 163.994 518.082 164.508C519.102 165.022 519.877 165.92 520.235 167.005L519.92 167.109L520.235 167.005L523.302 176.293C523.658 177.378 523.57 178.56 523.057 179.58C522.543 180.6 521.646 181.375 520.562 181.734L443.146 207.295C442.609 207.474 442.042 207.545 441.478 207.503C440.913 207.461 440.363 207.308 439.858 207.053V207.053Z" fill="#5BA02D" fill-opacity="0.9"/>
<path d="M541.351 209.923L506.607 178.596C505.76 177.83 505.251 176.759 505.192 175.619C505.133 174.478 505.529 173.361 506.292 172.512L512.843 165.247C513.608 164.398 514.679 163.889 515.82 163.83C516.96 163.771 518.078 164.167 518.927 164.932L553.671 196.259C554.518 197.025 555.027 198.096 555.086 199.236C555.145 200.377 554.749 201.494 553.985 202.343L547.435 209.608C547.057 210.029 546.6 210.371 546.089 210.615C545.578 210.858 545.023 210.998 544.458 211.025C544.382 211.029 544.306 211.031 544.23 211.031C543.166 211.033 542.139 210.638 541.351 209.923Z" fill="#5BA02D" fill-opacity="0.9"/>
<path d="M453.02 97.3805C471.687 97.3805 486.82 82.2479 486.82 63.5809C486.82 44.9139 471.687 29.7813 453.02 29.7813C434.353 29.7813 419.221 44.9139 419.221 63.5809C419.221 82.2479 434.353 97.3805 453.02 97.3805Z" fill="#5BA02D" fill-opacity="0.9"/>
<path d="M413.462 197.721C411.097 193.68 409.85 189.083 409.85 184.402C409.85 179.72 411.097 175.123 413.462 171.083L449.29 109.027C449.668 108.372 450.211 107.828 450.866 107.45C451.521 107.072 452.264 106.873 453.02 106.873C453.776 106.873 454.519 107.072 455.174 107.45C455.829 107.828 456.373 108.372 456.751 109.027L511.918 204.578C512.296 205.233 512.495 205.976 512.495 206.732C512.495 207.488 512.296 208.231 511.918 208.886C511.539 209.541 510.996 210.084 510.341 210.463C509.686 210.841 508.943 211.04 508.187 211.04H436.531C431.849 211.068 427.245 209.849 423.191 207.508C419.136 205.167 415.778 201.789 413.462 197.721Z" fill="#CCCCCC"/>
<path d="M480.88 76.444C483.071 76.3831 485.798 76.3071 487.899 74.7725C488.524 74.2969 489.038 73.6902 489.404 72.995C489.771 72.2999 489.981 71.533 490.019 70.7482C490.057 70.1904 489.966 69.6313 489.752 69.1146C489.538 68.598 489.208 68.1378 488.787 67.7701C487.689 66.8427 486.087 66.6255 484.361 67.1329L486.149 54.06L484.836 53.8801L482.733 69.249L483.83 68.7458C485.101 68.1626 486.846 67.8662 487.931 68.7823C488.197 69.022 488.405 69.3197 488.537 69.6526C488.67 69.9854 488.724 70.3442 488.695 70.7013C488.663 71.2855 488.505 71.8558 488.233 72.3736C487.96 72.8914 487.58 73.3445 487.117 73.7021C485.482 74.8962 483.308 75.0502 480.843 75.1191L480.88 76.444Z" fill="#2F2E41"/>
<path d="M477.249 55.1874H470.111V56.5129H477.249V55.1874Z" fill="#2F2E41"/>
<path d="M432.98 23.7187C432.041 19.8826 430.302 16.2885 427.875 13.1727C425.448 10.0569 422.389 7.49002 418.9 5.64062C415.321 3.80141 411.377 2.7824 407.356 2.65761C403.334 2.53283 399.335 3.30539 395.649 4.91919C391.874 6.53617 388.521 8.99942 385.85 12.1186C383.179 15.2378 381.261 18.9293 380.244 22.9079C379.197 26.9105 379.052 31.0956 379.82 35.161C380.762 39.4669 382.59 43.5298 385.187 47.0914C387.805 50.8829 390.883 54.3238 393.709 57.9564C396.546 61.5965 399.129 65.4273 401.441 69.4216C408.405 81.4564 412.821 94.7944 414.414 108.607C414.953 112.779 415.055 116.996 414.718 121.189C413.957 129.332 410.803 137.307 403.562 141.737C399.713 144.093 395.271 145.309 390.876 146.16C385.943 147.205 380.895 147.6 375.86 147.334C367.348 146.729 358.831 143.177 353.888 135.943C352.793 134.332 351.937 132.572 351.344 130.718C350.95 129.497 352.869 128.974 353.261 130.189C355.879 138.306 363.825 143.309 371.867 144.835C376.875 145.674 381.988 145.669 386.995 144.82C391.542 144.141 396.229 143.201 400.397 141.194C404.185 139.428 407.326 136.524 409.384 132.886C411.244 129.375 412.37 125.522 412.694 121.562C413.58 112.89 412.137 103.913 409.976 95.5262C407.665 86.5498 404.119 77.9375 399.44 69.9357C397.103 65.9376 394.486 62.1094 391.61 58.4797C388.762 54.8893 385.724 51.4369 383.155 47.6335C380.619 44.0458 378.833 39.9835 377.903 35.6895C377.111 31.5695 377.185 27.33 378.119 23.24C379.019 19.2034 380.782 15.4094 383.286 12.1178C385.79 8.82627 388.977 6.11505 392.627 4.16999C399.789 0.391572 408.516 -0.51309 416.178 2.27108C423.613 5.0147 429.665 10.5818 433.018 17.7624C433.825 19.5042 434.454 21.3226 434.897 23.1902C435.19 24.4346 433.274 24.9657 432.98 23.7187V23.7187Z" fill="#2F2E41"/>
<path d="M426.52 25.335C425.274 21.7827 422.762 18.8144 419.465 16.9974C416.168 15.1805 412.317 14.6423 408.648 15.4859C407.404 15.777 406.872 13.8605 408.12 13.5687C412.299 12.5435 416.711 13.1308 420.476 15.2136C424.242 17.2963 427.084 20.7215 428.437 24.8064C428.854 26.019 426.934 26.5398 426.52 25.335Z" fill="#2F2E41"/>
<path d="M426.217 32.5204C425.836 31.6322 425.824 30.6292 426.182 29.7316C426.54 28.834 427.239 28.1151 428.126 27.7324L437.26 23.8068C438.148 23.4251 439.151 23.4118 440.049 23.77C440.947 24.1281 441.666 24.8283 442.048 25.7165C442.43 26.6047 442.443 27.6081 442.085 28.5061C441.727 29.4041 441.027 30.123 440.138 30.5047L431.005 34.4303C430.117 34.812 429.113 34.8252 428.215 34.467C427.317 34.1089 426.598 33.4087 426.217 32.5204Z" fill="#2F2E41"/>
<path d="M448.697 218.801L438.947 218.01C437.809 217.916 436.754 217.375 436.015 216.504C435.275 215.634 434.911 214.506 435.002 213.367L441.204 136.983C441.301 135.779 441.635 134.606 442.185 133.53C442.736 132.455 443.494 131.498 444.414 130.716C445.335 129.933 446.401 129.339 447.551 128.969C448.701 128.598 449.913 128.458 451.117 128.555C452.321 128.653 453.495 128.987 454.57 129.539C455.645 130.09 456.601 130.848 457.383 131.769C458.166 132.69 458.759 133.756 459.129 134.906C459.499 136.056 459.639 137.268 459.541 138.472L453.339 214.856C453.252 215.933 452.762 216.939 451.968 217.672C451.174 218.406 450.133 218.814 449.052 218.816C448.934 218.816 448.816 218.811 448.697 218.801Z" fill="#5BA02D" fill-opacity="0.9"/>
<path d="M8.59546 66.7134C5.11111 58.5677 9.88732 47.9405 18.2921 45.1381C26.6969 42.3357 36.8952 47.97 38.9966 56.5769C37.6379 53.2626 37.0667 49.6783 37.3277 46.1058C37.5888 42.5333 38.675 39.0701 40.5011 35.9885C42.3271 32.9069 44.8431 30.291 47.8513 28.3463C50.8595 26.4017 54.2778 25.1815 57.8374 24.7815C61.3969 24.3816 65.0008 24.8129 68.3655 26.0415C71.7302 27.2701 74.764 29.2625 77.2284 31.862C79.6927 34.4616 81.5204 37.5974 82.5677 41.0228C83.615 44.4483 83.8534 48.07 83.2641 51.6032C88.3305 44.134 99.2015 41.3131 107.26 45.3764C115.319 49.4396 119.516 59.8573 116.523 68.3721L5.59644 68.1739" fill="#F2F2F2"/>
<path d="M233.263 159.497C229.779 151.351 234.555 140.724 242.96 137.921C251.365 135.119 261.563 140.753 263.665 149.36C262.306 146.046 261.735 142.462 261.996 138.889C262.257 135.317 263.343 131.853 265.169 128.772C266.995 125.69 269.511 123.074 272.519 121.13C275.527 119.185 278.946 117.965 282.505 117.565C286.065 117.165 289.669 117.596 293.033 118.825C296.398 120.053 299.432 122.046 301.896 124.645C304.361 127.245 306.188 130.381 307.236 133.806C308.283 137.232 308.521 140.853 307.932 144.386C312.998 136.917 323.869 134.096 331.928 138.16C339.987 142.223 344.184 152.641 341.191 161.155L230.264 160.957" fill="#F2F2F2"/>
</g>
<defs>
<clipPath id="clip0">
<rect width="600" height="428.175" fill="white" transform="translate(0 0.648315)"/>
</clipPath>
</defs>
</svg>
